<?xml version="1.0" encoding="utf-8"?>
<!-- Generator: Adobe Illustrator 22.0.1, SVG Export Plug-In . SVG Version: 6.00 Build 0)  -->
<svg version="1.1" id="Layer_1" xmlns="http://www.w3.org/2000/svg" xmlns:xlink="http://www.w3.org/1999/xlink" x="0px" y="0px"
	 viewBox="0 0 108.2 108.3" style="enable-background:new 0 0 108.2 108.3;" xml:space="preserve">
<style type="text/css">
	.st0{fill:#FFFFFF;}
</style>
<g>
	<g>
		<path class="st0" d="M108.2,54.2c0,30-24.2,54.1-54.3,54.1C24.1,108.3-0.2,83.9,0,53.8C0.2,23.9,24.5-0.4,55,0
			C83.5,0.5,108.3,23.7,108.2,54.2z M54.1,97.2c24.2,0,42.8-19.4,43.1-42.2c0.4-25-19.7-43.8-42.8-43.8c-25.1,0-42.7,20.3-43.1,42
			C10.7,77.8,30.5,97.2,54.1,97.2z"/>
		<path class="st0" d="M61.5,39.7c3.7-0.9,7.3-1.9,11-2.8c0.5,1.8,0.9,3.4,1.3,5c1.4,5.8,3.1,11.5,4.2,17.3c1.3,6.5,0.5,12.7-4,17.9
			c-2.6,3-6,5-9.8,6.3c-4.7,1.6-9.5,2.4-14.4,1.5c-7.1-1.4-11.6-5.9-14.1-12.4c-1.4-3.7-2.3-7.7-3.4-11.6c-1.1-3.9-2-7.8-3-11.7
			c-0.1-0.4-0.2-0.8-0.2-1.2c3.6-0.9,7.2-1.8,10.9-2.8c0.3,1.2,0.6,2.4,1,3.5c1.4,5.3,2.7,10.7,4.1,16c0.3,1.2,0.7,2.4,1.2,3.5
			c2.4,5.2,6.9,7.4,12.5,5.9c6.5-1.7,9.5-6.6,7.9-13.5c-1.5-6.6-3.3-13.2-5-19.7C61.7,40.6,61.6,40.3,61.5,39.7z"/>
		<path class="st0" d="M31.6,32.8c0-3.5,2.7-6.2,6.1-6.2c3.5,0,6.1,2.7,6.1,6.2S41.1,39,37.7,39S31.6,36.2,31.6,32.8z"/>
		<path class="st0" d="M51.3,27.8c0-3.4,2.7-6.1,6.1-6.1c3.5,0,6.2,2.8,6.1,6.3c0,3.5-2.8,6.1-6.2,6C53.9,34,51.3,31.3,51.3,27.8z"
			/>
	</g>
</g>
</svg>
