<?xml version="1.0" encoding="utf-8"?>
<!-- Generator: Adobe Illustrator 22.0.1, SVG Export Plug-In . SVG Version: 6.00 Build 0)  -->
<svg version="1.1" id="Layer_1" xmlns="http://www.w3.org/2000/svg" xmlns:xlink="http://www.w3.org/1999/xlink" x="0px" y="0px"
	 viewBox="0 0 550 550" style="enable-background:new 0 0 550 550;" xml:space="preserve">
<style type="text/css">
	.st0{fill:#FFFFFF;}
</style>
<g>
	<g>
		<path class="st0" d="M212.2,340.5c0-43.7,0-87.5,0-131.3c42,0,84.1,0,126.2,0c0,43.7,0,87.5,0,131.3
			C296.3,340.5,254.2,340.5,212.2,340.5z M329.3,274.8c0.1-30.5-24.7-53.8-53.2-54.1c-30.5-0.4-54.8,23.8-55,53.8
			c-0.2,30.1,24.1,54.5,53.9,54.5C305.1,329,329.3,304.8,329.3,274.8z"/>
		<path d="M329.3,274.8c0,30-24.2,54.1-54.3,54.1c-29.8,0-54.1-24.4-53.9-54.5c0.2-29.9,24.5-54.2,55-53.8
			C304.6,221.1,329.4,244.3,329.3,274.8z M275.2,317.8c24.2,0,42.8-19.4,43.1-42.2c0.4-25-19.7-43.8-42.8-43.8
			c-25.1,0-42.7,20.3-43.1,42C231.8,298.4,251.6,317.8,275.2,317.8z"/>
		<path class="st0" d="M275.2,317.8c-23.5,0-43.4-19.4-42.9-44c0.4-21.8,18-42,43.1-42c23.2,0,43.2,18.8,42.8,43.8
			C317.9,298.4,299.3,317.8,275.2,317.8z M282.6,260.3c0.1,0.5,0.2,0.9,0.3,1.2c1.7,6.6,3.4,13.1,5,19.7c1.6,6.8-1.4,11.7-7.9,13.5
			c-5.6,1.5-10.1-0.7-12.5-5.9c-0.5-1.1-0.9-2.3-1.2-3.5c-1.4-5.3-2.7-10.7-4.1-16c-0.3-1.2-0.6-2.4-1-3.5
			c-3.7,0.9-7.3,1.9-10.9,2.8c0.1,0.5,0.1,0.8,0.2,1.2c1,3.9,1.9,7.8,3,11.7c1.1,3.9,1.9,7.8,3.4,11.6c2.5,6.5,7,11,14.1,12.4
			c4.9,1,9.7,0.1,14.4-1.5c3.8-1.3,7.1-3.2,9.8-6.3c4.6-5.2,5.3-11.5,4-17.9c-1.1-5.8-2.8-11.6-4.2-17.3c-0.4-1.7-0.8-3.3-1.3-5
			C289.8,258.5,286.2,259.4,282.6,260.3z M252.7,253.4c0,3.4,2.7,6.2,6.1,6.2c3.5,0,6.1-2.7,6.1-6.2c0-3.5-2.7-6.2-6.1-6.2
			C255.4,247.2,252.7,249.9,252.7,253.4z M272.4,248.4c0,3.5,2.6,6.2,6,6.3c3.5,0,6.2-2.6,6.2-6c0-3.5-2.7-6.3-6.1-6.3
			C275.1,242.4,272.4,245.1,272.4,248.4z"/>
		<path d="M282.6,260.3c3.7-0.9,7.3-1.9,11-2.8c0.5,1.8,0.9,3.4,1.3,5c1.4,5.8,3.1,11.5,4.2,17.3c1.3,6.5,0.5,12.7-4,17.9
			c-2.6,3-6,5-9.8,6.3c-4.7,1.6-9.5,2.4-14.4,1.5c-7.1-1.4-11.6-5.9-14.1-12.4c-1.4-3.7-2.3-7.7-3.4-11.6c-1.1-3.9-2-7.8-3-11.7
			c-0.1-0.4-0.2-0.8-0.2-1.2c3.6-0.9,7.2-1.8,10.9-2.8c0.3,1.2,0.6,2.4,1,3.5c1.4,5.3,2.7,10.7,4.1,16c0.3,1.2,0.7,2.4,1.2,3.5
			c2.4,5.2,6.9,7.4,12.5,5.9c6.5-1.7,9.5-6.6,7.9-13.5c-1.5-6.6-3.3-13.2-5-19.7C282.8,261.2,282.7,260.9,282.6,260.3z"/>
		<path d="M252.7,253.4c0-3.5,2.7-6.2,6.1-6.2c3.5,0,6.1,2.7,6.1,6.2c0,3.5-2.7,6.2-6.1,6.2C255.4,259.6,252.7,256.8,252.7,253.4z"
			/>
		<path d="M272.4,248.4c0-3.4,2.7-6.1,6.1-6.1c3.5,0,6.2,2.8,6.1,6.3c0,3.5-2.8,6.1-6.2,6C275,254.6,272.4,251.9,272.4,248.4z"/>
	</g>
</g>
</svg>
